<svg width="249" height="52" viewBox="0 0 249 52" fill="none" xmlns="http://www.w3.org/2000/svg">
<g clip-path="url(#clip0_1_1068)">
<g filter="url(#filter0_d_1_1068)">
<path d="M1 12C1 5.37258 6.37258 0 13 0H238C244.627 0 250 5.37258 250 12V36C250 42.6274 244.627 48 238 48H13C6.37259 48 1 42.6274 1 36V12Z" fill="white"/>
</g>
<path d="M51.96 24.352C51.96 23.168 52.168 22.144 52.584 21.28C53 20.416 53.5973 19.7493 54.376 19.28C55.1653 18.8107 56.104 18.576 57.192 18.576C58.2693 18.576 59.1973 18.8107 59.976 19.28C60.7653 19.7493 61.3733 20.416 61.8 21.28C62.2267 22.144 62.44 23.1627 62.44 24.336C62.44 25.52 62.2267 26.5493 61.8 27.424C61.3733 28.288 60.7653 28.96 59.976 29.44C59.1973 29.9093 58.2693 30.144 57.192 30.144C56.104 30.144 55.1707 29.9093 54.392 29.44C53.6133 28.96 53.0107 28.288 52.584 27.424C52.168 26.5493 51.96 25.5253 51.96 24.352ZM53.528 24.352C53.528 25.76 53.8373 26.8587 54.456 27.648C55.0747 28.4373 55.9867 28.832 57.192 28.832C58.3547 28.832 59.256 28.4427 59.896 27.664C60.5467 26.8747 60.872 25.7707 60.872 24.352C60.872 22.9333 60.552 21.8347 59.912 21.056C59.272 20.2773 58.3653 19.888 57.192 19.888C55.9867 19.888 55.0747 20.2773 54.456 21.056C53.8373 21.8347 53.528 22.9333 53.528 24.352ZM66.3979 30V23.12H63.5019V21.952H70.7339V23.12H67.8379V30H66.3979ZM74.7965 30.144C74.0925 30.144 73.4365 30.0533 72.8285 29.872C72.2205 29.6907 71.7192 29.4347 71.3245 29.104L71.8045 28.096C72.1992 28.416 72.6472 28.656 73.1485 28.816C73.6498 28.976 74.1938 29.056 74.7805 29.056C75.5485 29.056 76.1032 28.944 76.4445 28.72C76.7965 28.4853 76.9725 28.1493 76.9725 27.712C76.9725 27.296 76.8285 26.9813 76.5405 26.768C76.2525 26.5547 75.8312 26.448 75.2765 26.448H73.3245V25.392H75.1005C75.6018 25.392 75.9912 25.2853 76.2685 25.072C76.5565 24.848 76.7005 24.544 76.7005 24.16C76.7005 23.7653 76.5405 23.456 76.2205 23.232C75.9005 22.9973 75.4098 22.88 74.7485 22.88C74.1938 22.88 73.6872 22.9547 73.2285 23.104C72.7698 23.2427 72.3325 23.456 71.9165 23.744L71.4525 22.8C71.8898 22.4587 72.4018 22.208 72.9885 22.048C73.5752 21.888 74.2152 21.808 74.9085 21.808C75.9218 21.808 76.6952 22.0053 77.2285 22.4C77.7725 22.784 78.0445 23.3333 78.0445 24.048C78.0445 24.5493 77.8738 24.9813 77.5325 25.344C77.1912 25.696 76.7378 25.9093 76.1725 25.984V25.776C76.8125 25.808 77.3298 26.0053 77.7245 26.368C78.1192 26.72 78.3165 27.1893 78.3165 27.776C78.3165 28.4907 78.0178 29.0667 77.4205 29.504C76.8232 29.9307 75.9485 30.144 74.7965 30.144ZM80.2636 30V21.952H81.7036V24.8H84.0716C85.117 24.8 85.901 25.024 86.4236 25.472C86.957 25.9093 87.2236 26.544 87.2236 27.376C87.2236 27.9093 87.101 28.3733 86.8556 28.768C86.6103 29.1627 86.253 29.4667 85.7836 29.68C85.3143 29.8933 84.7436 30 84.0716 30H80.2636ZM81.7036 28.992H83.9116C84.5516 28.992 85.0316 28.864 85.3516 28.608C85.6823 28.3413 85.8476 27.936 85.8476 27.392C85.8476 26.848 85.6823 26.448 85.3516 26.192C85.0316 25.936 84.5516 25.808 83.9116 25.808H81.7036V28.992ZM88.3916 30V21.952H89.8316V30H88.3916ZM92.3261 30V21.952H96.2941C97.2435 21.952 97.9475 22.1333 98.4061 22.496C98.8755 22.8587 99.1101 23.3813 99.1101 24.064C99.1101 24.576 98.9341 25.008 98.5821 25.36C98.2301 25.7013 97.7715 25.9093 97.2061 25.984V25.776C97.8781 25.7973 98.4061 25.9947 98.7901 26.368C99.1848 26.7307 99.3821 27.2 99.3821 27.776C99.3821 28.4587 99.1208 29.0027 98.5981 29.408C98.0861 29.8027 97.3661 30 96.4381 30H92.3261ZM93.7021 29.04H96.3421C96.8861 29.04 97.3021 28.928 97.5901 28.704C97.8781 28.4693 98.0221 28.1387 98.0221 27.712C98.0221 27.2747 97.8781 26.944 97.5901 26.72C97.3021 26.496 96.8861 26.384 96.3421 26.384H93.7021V29.04ZM93.7021 25.424H96.1661C96.6675 25.424 97.0568 25.312 97.3341 25.088C97.6115 24.864 97.7501 24.5547 97.7501 24.16C97.7501 23.7547 97.6115 23.4453 97.3341 23.232C97.0568 23.0187 96.6675 22.912 96.1661 22.912H93.7021V25.424ZM101.342 30V21.952H102.782V24.8H105.15C106.195 24.8 106.979 25.024 107.502 25.472C108.035 25.9093 108.302 26.544 108.302 27.376C108.302 27.9093 108.179 28.3733 107.934 28.768C107.688 29.1627 107.331 29.4667 106.862 29.68C106.392 29.8933 105.822 30 105.15 30H101.342ZM102.782 28.992H104.99C105.63 28.992 106.11 28.864 106.43 28.608C106.76 28.3413 106.926 27.936 106.926 27.392C106.926 26.848 106.76 26.448 106.43 26.192C106.11 25.936 105.63 25.808 104.99 25.808H102.782V28.992ZM109.47 30V21.952H110.91V30H109.47Z" fill="#363740"/>
<path d="M36.71 27.58L32.19 23.07C32.2846 22.6094 32.3315 22.1402 32.33 21.67C32.3296 20.3807 32.0042 19.1122 31.3839 17.9819C30.7636 16.8516 29.8683 15.8959 28.7809 15.2031C27.6934 14.5104 26.4489 14.103 25.1623 14.0185C23.8757 13.9341 22.5886 14.1754 21.42 14.72C21.2719 14.7876 21.1426 14.8904 21.0432 15.0194C20.9439 15.1483 20.8776 15.2996 20.85 15.46C20.8225 15.6184 20.8335 15.7811 20.8823 15.9343C20.931 16.0875 21.016 16.2266 21.13 16.34L25.48 20.68L23.68 22.48L19.34 18.13C19.2256 18.0178 19.086 17.9347 18.9329 17.8877C18.7797 17.8407 18.6175 17.8312 18.46 17.86C18.3005 17.8866 18.1499 17.9514 18.0211 18.049C17.8922 18.1465 17.7889 18.2738 17.72 18.42C17.1735 19.5925 16.9324 20.8842 17.0192 22.1749C17.1061 23.4656 17.5179 24.7133 18.2165 25.8021C18.915 26.8908 19.8776 27.7852 21.0147 28.4021C22.1518 29.0189 23.4264 29.3381 24.72 29.33C25.1902 29.3315 25.6593 29.2846 26.12 29.19L30.63 33.71C30.7229 33.8037 30.8335 33.8781 30.9554 33.9289C31.0772 33.9797 31.2079 34.0058 31.34 34.0058C31.472 34.0058 31.6027 33.9797 31.7245 33.9289C31.8464 33.8781 31.957 33.8037 32.05 33.71C32.1437 33.617 32.2181 33.5064 32.2688 33.3846C32.3196 33.2627 32.3458 33.132 32.3458 33C32.3458 32.868 32.3196 32.7373 32.2688 32.6154C32.2181 32.4936 32.1437 32.383 32.05 32.29L27.15 27.39C27.0275 27.2684 26.8757 27.1805 26.7092 27.1349C26.5427 27.0894 26.3673 27.0877 26.2 27.13C25.7171 27.2593 25.2198 27.3265 24.72 27.33C23.972 27.3366 23.2301 27.1951 22.5371 26.9138C21.8441 26.6324 21.2135 26.2167 20.6818 25.6906C20.1502 25.1645 19.7278 24.5384 19.4392 23.8484C19.1505 23.1583 19.0012 22.418 19 21.67C18.9987 21.335 19.0254 21.0005 19.08 20.67L23 24.6C23.0929 24.6937 23.2035 24.7681 23.3254 24.8189C23.4472 24.8697 23.5779 24.8958 23.71 24.8958C23.842 24.8958 23.9727 24.8697 24.0945 24.8189C24.2164 24.7681 24.327 24.6937 24.42 24.6L27.6 21.39C27.7802 21.2035 27.8809 20.9543 27.8809 20.695C27.8809 20.4357 27.7802 20.1865 27.6 20L23.71 16.08C24.0405 16.026 24.375 15.9993 24.71 16C26.212 16.0027 27.6516 16.6012 28.7128 17.6642C29.774 18.7273 30.37 20.168 30.37 21.67C30.3665 22.1698 30.2993 22.6672 30.17 23.15C30.1276 23.3173 30.1293 23.4928 30.1749 23.6592C30.2204 23.8257 30.3083 23.9776 30.43 24.1L35.33 29C35.5183 29.1883 35.7737 29.2941 36.04 29.2941C36.3063 29.2941 36.5616 29.1883 36.75 29C36.9383 28.8117 37.044 28.5563 37.044 28.29C37.044 28.0237 36.9383 27.7683 36.75 27.58H36.71Z" fill="#DCE4EA"/>
</g>
<defs>
<filter id="filter0_d_1_1068" x="0" y="0" width="251" height="51" filterUnits="userSpaceOnUse" color-interpolation-filters="sRGB">
<feFlood flood-opacity="0" result="BackgroundImageFix"/>
<feColorMatrix in="SourceAlpha" type="matrix" values="0 0 0 0 0 0 0 0 0 0 0 0 0 0 0 0 0 0 127 0" result="hardAlpha"/>
<feOffset dy="2"/>
<feGaussianBlur stdDeviation="0.5"/>
<feComposite in2="hardAlpha" operator="out"/>
<feColorMatrix type="matrix" values="0 0 0 0 0 0 0 0 0 0 0 0 0 0 0 0 0 0 0.02 0"/>
<feBlend mode="normal" in2="BackgroundImageFix" result="effect1_dropShadow_1_1068"/>
<feBlend mode="normal" in="SourceGraphic" in2="effect1_dropShadow_1_1068" result="shape"/>
</filter>
<clipPath id="clip0_1_1068">
<rect width="249" height="52" fill="white"/>
</clipPath>
</defs>
</svg>
